<svg xmlns="http://www.w3.org/2000/svg" viewBox="0 0 418.18 88.52"><defs><style>.cls-1{fill:#fff;}</style></defs><g id="Layer_2" data-name="Layer 2"><g id="OBJECTS"><path class="cls-1" d="M138.88,49.26a15.94,15.94,0,0,1-6.3-1.2,12,12,0,0,1-4.67-3.45l4.88-5.78a10.12,10.12,0,0,0,2.62,2.46,5.29,5.29,0,0,0,2.84.83q4,0,4-4.6V23.93H131.3V17h19.77V37q0,6.18-3.11,9.23T138.88,49.26Z"/><path class="cls-1" d="M168.37,49a15.27,15.27,0,0,1-7.14-1.62,12.39,12.39,0,0,1-4.9-4.5,12.15,12.15,0,0,1-1.78-6.56,12.07,12.07,0,0,1,1.78-6.55,12.27,12.27,0,0,1,4.9-4.45,16.75,16.75,0,0,1,14.29,0,12.07,12.07,0,0,1,4.9,4.45,12.23,12.23,0,0,1,1.76,6.55,12.31,12.31,0,0,1-1.76,6.56,12.19,12.19,0,0,1-4.9,4.5A15.37,15.37,0,0,1,168.37,49Zm0-6.81a5.14,5.14,0,0,0,2.64-.68,4.85,4.85,0,0,0,1.83-2,7,7,0,0,0,.67-3.18,6.69,6.69,0,0,0-.67-3.14,5,5,0,0,0-1.83-2,5.13,5.13,0,0,0-2.64-.67,5,5,0,0,0-2.6.67,5,5,0,0,0-1.85,2,6.45,6.45,0,0,0-.7,3.14,6.72,6.72,0,0,0,.7,3.18,4.82,4.82,0,0,0,1.85,2A5,5,0,0,0,168.37,42.22Z"/><path class="cls-1" d="M185.52,48.63V24.16h8.17v7.13l-1.22-2A7.88,7.88,0,0,1,196,25.13a11.8,11.8,0,0,1,5.91-1.38v7.72a9,9,0,0,0-1-.11q-.43,0-.93,0a6.18,6.18,0,0,0-4.24,1.43c-1.09.94-1.63,2.49-1.63,4.62V48.63Z"/><path class="cls-1" d="M215.37,47.36a12.55,12.55,0,0,1-6-1.46,11.27,11.27,0,0,1-6-10.37A11.56,11.56,0,0,1,205,29.28a11.4,11.4,0,0,1,4.38-4.09,12.65,12.65,0,0,1,6-1.44A10.68,10.68,0,0,1,220.69,25a7.93,7.93,0,0,1,3.37,3.86,16.83,16.83,0,0,1,1.15,6.68,16.88,16.88,0,0,1-1.15,6.69,8,8,0,0,1-3.37,3.88A10.58,10.58,0,0,1,215.37,47.36Zm1.49,10.43a27.11,27.11,0,0,1-6.71-.81,16.53,16.53,0,0,1-5.44-2.39l3.12-6a11.55,11.55,0,0,0,3.81,1.92,15,15,0,0,0,4.45.7q3.48,0,5-1.51a5.93,5.93,0,0,0,1.53-4.4V42.4l.46-6.87-.05-6.9V24.16h8.17v20q0,6.95-3.74,10.29T216.86,57.79Zm.54-17.25a5.78,5.78,0,0,0,2.73-.63,4.81,4.81,0,0,0,1.9-1.76,4.9,4.9,0,0,0,.69-2.62,5,5,0,0,0-.69-2.62,4.67,4.67,0,0,0-1.9-1.73,5.9,5.9,0,0,0-2.73-.61,6.05,6.05,0,0,0-2.76.61,4.66,4.66,0,0,0-1.92,1.73,5,5,0,0,0-.7,2.62,4.91,4.91,0,0,0,.7,2.62,4.8,4.8,0,0,0,1.92,1.76A5.94,5.94,0,0,0,217.4,40.54Z"/><path class="cls-1" d="M248.91,49a16.52,16.52,0,0,1-7.56-1.64,12.42,12.42,0,0,1-5-4.52,12.09,12.09,0,0,1-1.79-6.52,12.34,12.34,0,0,1,1.74-6.53,12,12,0,0,1,4.81-4.47,15.62,15.62,0,0,1,13.5-.13,11.33,11.33,0,0,1,4.74,4.31,12.9,12.9,0,0,1,1.76,6.91c0,.3,0,.64,0,1s-.06.76-.09,1.09H241.6V34h14.81l-3.26,1.27a5.74,5.74,0,0,0-.6-2.89,4.8,4.8,0,0,0-1.81-1.9,5.64,5.64,0,0,0-5.37,0,4.55,4.55,0,0,0-1.79,1.92,6.37,6.37,0,0,0-.63,2.91v1.31a6.16,6.16,0,0,0,.75,3.12,5,5,0,0,0,2.14,2,7.48,7.48,0,0,0,3.34.7,8.35,8.35,0,0,0,3.09-.52,9.36,9.36,0,0,0,2.56-1.61l4.51,4.7A11.49,11.49,0,0,1,255,48,16.76,16.76,0,0,1,248.91,49Z"/><path class="cls-1" d="M281.24,49a21.51,21.51,0,0,1-6.91-1.11A14,14,0,0,1,269.14,45l1.67-3.52a14.49,14.49,0,0,0,4.6,2.62,16.7,16.7,0,0,0,5.83,1,13.26,13.26,0,0,0,4.47-.63,5.29,5.29,0,0,0,2.53-1.74,4.14,4.14,0,0,0,.81-2.51A3.39,3.39,0,0,0,288,37.66a7.86,7.86,0,0,0-2.76-1.61A31.31,31.31,0,0,0,281.51,35c-1.35-.3-2.72-.65-4.09-1.06a18.33,18.33,0,0,1-3.74-1.56,7.71,7.71,0,0,1-2.74-2.55,7.48,7.48,0,0,1-1-4.13,8.37,8.37,0,0,1,1.28-4.49,9,9,0,0,1,4-3.3A16.47,16.47,0,0,1,282,16.66a21.22,21.22,0,0,1,5.46.72,15.55,15.55,0,0,1,4.7,2.08l-1.5,3.61a14.38,14.38,0,0,0-4.28-2A16.68,16.68,0,0,0,282,20.5a11.85,11.85,0,0,0-4.38.68,5.34,5.34,0,0,0-2.51,1.8,4.29,4.29,0,0,0-.79,2.53,3.46,3.46,0,0,0,1.06,2.66,7.53,7.53,0,0,0,2.76,1.58,35.53,35.53,0,0,0,3.72,1.07c1.35.31,2.72.67,4.09,1.06a17.23,17.23,0,0,1,3.74,1.53,7.84,7.84,0,0,1,2.74,2.53,7.28,7.28,0,0,1,1,4.06,8.13,8.13,0,0,1-1.3,4.45,9.15,9.15,0,0,1-4.05,3.3A16.6,16.6,0,0,1,281.24,49Z"/><path class="cls-1" d="M309,48.9a12.29,12.29,0,0,1-5.4-1.13A8.07,8.07,0,0,1,300,44.32a12,12,0,0,1-1.28-5.85V24.7H303V38a7.33,7.33,0,0,0,1.69,5.28A6.29,6.29,0,0,0,309.46,45a7.92,7.92,0,0,0,3.92-.92A6.21,6.21,0,0,0,316,41.38a9.49,9.49,0,0,0,.9-4.31V24.7h4.34V48.63h-4.11V42.17l.67,1.72a8.34,8.34,0,0,1-3.52,3.7A10.66,10.66,0,0,1,309,48.9Z"/><path class="cls-1" d="M335.91,48.9a11.18,11.18,0,0,1-4.67-.91,7.1,7.1,0,0,1-3.09-2.5,6.37,6.37,0,0,1-1.09-3.64,6.84,6.84,0,0,1,.93-3.52,6.53,6.53,0,0,1,3-2.53,14.06,14.06,0,0,1,5.67-.94h7.59V38h-7.41c-2.17,0-3.63.36-4.38,1.09a3.49,3.49,0,0,0-1.13,2.61,3.38,3.38,0,0,0,1.4,2.83,6.38,6.38,0,0,0,3.89,1.06,8.13,8.13,0,0,0,4.26-1.09,6.12,6.12,0,0,0,2.64-3.16l.86,3a6.74,6.74,0,0,1-3,3.37A11,11,0,0,1,335.91,48.9Zm7.86-.27V43.57l-.23-1V34a5.58,5.58,0,0,0-1.6-4.27,6.77,6.77,0,0,0-4.81-1.51,12.56,12.56,0,0,0-4.15.7,10.71,10.71,0,0,0-3.43,1.87l-1.81-3.25a13.27,13.27,0,0,1,4.45-2.28,18.78,18.78,0,0,1,5.44-.79q4.92,0,7.58,2.39t2.67,7.32V48.63Zm-9.21-27.41,6.14-5.87h5.51l-7.59,5.87Z"/><path class="cls-1" d="M355.37,48.63V24.7h4.16v6.5l-.41-1.63a7.37,7.37,0,0,1,3.34-3.79,11.76,11.76,0,0,1,5.78-1.31v4.2a3.12,3.12,0,0,0-.52,0h-.47a7.36,7.36,0,0,0-5.51,2.07,8.23,8.23,0,0,0-2,6V48.63Z"/><path class="cls-1" d="M384,48.9a14,14,0,0,1-6.75-1.58A11.45,11.45,0,0,1,372.73,43a12.29,12.29,0,0,1-1.6-6.32,12.6,12.6,0,0,1,1.56-6.32A11.31,11.31,0,0,1,377,26a12.18,12.18,0,0,1,6.16-1.56A12,12,0,0,1,389.28,26a10.84,10.84,0,0,1,4.18,4.31A13.43,13.43,0,0,1,395,36.8c0,.18,0,.39,0,.63s0,.47-.07.68H374.52V35h18.1l-1.76,1.09a8.05,8.05,0,0,0-.95-4.11,7.22,7.22,0,0,0-2.73-2.83,8.55,8.55,0,0,0-8.06,0A7.19,7.19,0,0,0,376.37,32a8.64,8.64,0,0,0-1,4.18v.72a8.18,8.18,0,0,0,1.11,4.26,7.7,7.7,0,0,0,3.09,2.92,9.76,9.76,0,0,0,4.56,1,10,10,0,0,0,3.86-.73A8.43,8.43,0,0,0,391,42.22L393.43,45a10.37,10.37,0,0,1-4,2.89A13.91,13.91,0,0,1,384,48.9Z"/><path class="cls-1" d="M398.13,48.63v-2.8l15.35-19.06.86,1.49H398.4V24.7h19.41v2.84l-15.35,19-1-1.49h16.71v3.57Z"/><path class="cls-1" d="M166.06,74.35h-1.12V63.77h7.26v1h-6.14Zm-.12-5.46h5.59v1h-5.59Z"/><path class="cls-1" d="M174,74.35V63.77h4a5.57,5.57,0,0,1,2.31.43,3.22,3.22,0,0,1,1.49,1.24,3.52,3.52,0,0,1,.52,2,3.45,3.45,0,0,1-.52,1.92,3.22,3.22,0,0,1-1.49,1.24A5.57,5.57,0,0,1,178,71h-3.34l.5-.51v3.87Zm1.12-3.78-.5-.53h3.31a3.66,3.66,0,0,0,2.41-.69,2.73,2.73,0,0,0,0-3.92,3.66,3.66,0,0,0-2.41-.7h-3.31l.5-.53Zm6.11,3.78-2.73-3.84h1.21l2.74,3.84Z"/><path class="cls-1" d="M189,74.44a6,6,0,0,1-2.21-.4,5.26,5.26,0,0,1-1.77-1.13,5.31,5.31,0,0,1-1.17-1.71,5.79,5.79,0,0,1,0-4.28,5.31,5.31,0,0,1,1.17-1.71,5.16,5.16,0,0,1,1.76-1.13,6,6,0,0,1,2.22-.41,5.87,5.87,0,0,1,2.21.41A5.19,5.19,0,0,1,193,65.2a5.31,5.31,0,0,1,1.17,1.71,5.84,5.84,0,0,1,0,4.3A5.26,5.26,0,0,1,191.25,74,5.87,5.87,0,0,1,189,74.44Zm0-1a4.64,4.64,0,0,0,1.77-.32,4.42,4.42,0,0,0,1.4-.92,4.35,4.35,0,0,0,.93-1.39,4.81,4.81,0,0,0,0-3.5,4.24,4.24,0,0,0-.93-1.39,4.11,4.11,0,0,0-1.4-.92,4.65,4.65,0,0,0-1.77-.33,4.72,4.72,0,0,0-1.77.33,4.05,4.05,0,0,0-1.41.92,4.43,4.43,0,0,0-.94,1.39,4.51,4.51,0,0,0-.34,1.75,4.57,4.57,0,0,0,.34,1.74,4.48,4.48,0,0,0,.94,1.4,4.36,4.36,0,0,0,1.41.92A4.72,4.72,0,0,0,189,73.44Z"/><path class="cls-1" d="M196.59,74.35V63.77h.92L204.82,73h-.49V63.77h1.11V74.35h-.93l-7.28-9.19h.48v9.19Z"/><path class="cls-1" d="M210.43,74.35V64.73h-3.72v-1h8.56v1h-3.72v9.62Z"/><path class="cls-1" d="M217.66,73.38H224v1h-7.48V63.77h7.26v1h-6.14Zm-.13-4.88h5.6v1h-5.6Z"/><path class="cls-1" d="M226.14,74.35V63.77h.92L234.37,73h-.49V63.77H235V74.35h-.93l-7.29-9.19h.49v9.19Z"/><path class="cls-1" d="M237.92,74.35V63.77h4.31a6.26,6.26,0,0,1,3,.67,4.92,4.92,0,0,1,2,1.87,5.68,5.68,0,0,1,0,5.5,4.92,4.92,0,0,1-2,1.87,6.26,6.26,0,0,1-3,.67Zm1.12-1h3.13a5.08,5.08,0,0,0,2.44-.55,4,4,0,0,0,1.61-1.53,4.63,4.63,0,0,0,0-4.49,4,4,0,0,0-1.61-1.53,5.2,5.2,0,0,0-2.44-.55H239Z"/><path class="cls-1" d="M255.75,74.35l-3.57-10.58h1.15l3.34,10h-.57l3.44-10h1l3.41,10h-.55l3.37-10h1.08l-3.57,10.58h-1.18l-3.25-9.45h.3l-3.27,9.45Z"/><path class="cls-1" d="M270.75,73.38h6.37v1h-7.49V63.77h7.26v1h-6.14Zm-.12-4.88h5.59v1h-5.59Z"/><path class="cls-1" d="M279.23,74.35V63.77h4.57a4.57,4.57,0,0,1,2.75.71,2.33,2.33,0,0,1,1,2A2.4,2.4,0,0,1,286,68.83a3.72,3.72,0,0,1-1.5.3l.25-.36a4.42,4.42,0,0,1,1.75.31,2.55,2.55,0,0,1,1.14.92,2.71,2.71,0,0,1,.41,1.52,2.45,2.45,0,0,1-1,2.09,5,5,0,0,1-3,.74Zm1.12-.92h3.74a3.91,3.91,0,0,0,2.13-.48,1.91,1.91,0,0,0,0-3,3.91,3.91,0,0,0-2.13-.48h-3.86v-.92h3.5a3.48,3.48,0,0,0,2-.48,1.65,1.65,0,0,0,.7-1.44,1.63,1.63,0,0,0-.7-1.45,3.56,3.56,0,0,0-2-.47h-3.38Z"/><path class="cls-1" d="M293.57,74.35V63.77h4.31a6.26,6.26,0,0,1,3,.67,4.92,4.92,0,0,1,2,1.87,5.68,5.68,0,0,1,0,5.5,4.92,4.92,0,0,1-2,1.87,6.26,6.26,0,0,1-3,.67Zm1.12-1h3.13a5.08,5.08,0,0,0,2.44-.55,4,4,0,0,0,1.61-1.53,4.63,4.63,0,0,0,0-4.49,4,4,0,0,0-1.61-1.53,5.2,5.2,0,0,0-2.44-.55h-3.13Z"/><path class="cls-1" d="M306.67,73.38H313v1h-7.48V63.77h7.25v1h-6.13Zm-.13-4.88h5.6v1h-5.6Z"/><path class="cls-1" d="M318.16,74.35l-4.69-10.58h1.21l4.39,10h-.67l4.42-10H324l-4.69,10.58Z"/><path class="cls-1" d="M326.31,73.38h6.37v1h-7.49V63.77h7.26v1h-6.14Zm-.12-4.88h5.59v1h-5.59Z"/><path class="cls-1" d="M334.79,74.35V63.77h1.12v9.61h5.93v1Z"/><path class="cls-1" d="M347.81,74.44a6,6,0,0,1-2.21-.4,5.26,5.26,0,0,1-1.77-1.13,5.31,5.31,0,0,1-1.17-1.71,5.79,5.79,0,0,1,0-4.28,5.31,5.31,0,0,1,1.17-1.71,5.16,5.16,0,0,1,1.76-1.13,6,6,0,0,1,2.22-.41,5.87,5.87,0,0,1,2.21.41,5.19,5.19,0,0,1,1.76,1.12A5.31,5.31,0,0,1,353,66.91a5.84,5.84,0,0,1,0,4.3A5.26,5.26,0,0,1,350,74,5.87,5.87,0,0,1,347.81,74.44Zm0-1a4.64,4.64,0,0,0,1.77-.32,4.42,4.42,0,0,0,1.4-.92,4.35,4.35,0,0,0,.93-1.39,4.81,4.81,0,0,0,0-3.5,4.24,4.24,0,0,0-.93-1.39,4.11,4.11,0,0,0-1.4-.92,4.65,4.65,0,0,0-1.77-.33A4.72,4.72,0,0,0,346,65a4.05,4.05,0,0,0-1.41.92,4.43,4.43,0,0,0-.94,1.39,4.51,4.51,0,0,0-.34,1.75,4.57,4.57,0,0,0,.34,1.74,4.48,4.48,0,0,0,.94,1.4,4.36,4.36,0,0,0,1.41.92A4.72,4.72,0,0,0,347.81,73.44Z"/><path class="cls-1" d="M355.36,74.35V63.77h4a5.57,5.57,0,0,1,2.31.43,3.22,3.22,0,0,1,1.49,1.24,3.52,3.52,0,0,1,.53,2,3.45,3.45,0,0,1-.53,1.92,3.3,3.3,0,0,1-1.49,1.25,5.57,5.57,0,0,1-2.31.44H356l.5-.53v3.87Zm1.12-3.78L356,70h3.31a3.66,3.66,0,0,0,2.41-.69,2.4,2.4,0,0,0,.83-1.94,2.43,2.43,0,0,0-.83-2,3.66,3.66,0,0,0-2.41-.7H356l.5-.53Z"/><path class="cls-1" d="M366.82,73.38h6.37v1H365.7V63.77H373v1h-6.14Zm-.12-4.88h5.6v1h-5.6Z"/><path class="cls-1" d="M375.3,74.35V63.77h4a5.6,5.6,0,0,1,2.31.43,3.27,3.27,0,0,1,1.49,1.24,3.52,3.52,0,0,1,.52,2,3.45,3.45,0,0,1-.52,1.92,3.27,3.27,0,0,1-1.49,1.24,5.6,5.6,0,0,1-2.31.43h-3.35l.5-.51v3.87Zm1.12-3.78-.5-.53h3.32a3.66,3.66,0,0,0,2.41-.69,2.75,2.75,0,0,0,0-3.92,3.66,3.66,0,0,0-2.41-.7h-3.32l.5-.53Zm6.11,3.78-2.72-3.84H381l2.74,3.84Z"/><path class="cls-1" d="M116.8,41.82,76,1a3.45,3.45,0,0,0-4.88,0L58.9,13.21l-6.5-6.5a11.52,11.52,0,0,0-16.28,0L1,41.82A3.45,3.45,0,0,0,1,46.7L41.82,87.51a3.45,3.45,0,0,0,4.88,0L58.9,75.3l6.51,6.51a11.52,11.52,0,0,0,16.28,0L116.8,46.7A3.45,3.45,0,0,0,116.8,41.82ZM73.55,8.34,106,40.8H86.49L63.79,18.1Zm6.63,35.92L58.9,65.53,37.63,44.26,58.9,23ZM41,11.6a4.61,4.61,0,0,1,6.52,0L54,18.1,31.31,40.8H11.79Zm3.26,68.58L11.79,47.71H31.31L54,70.42Zm32.55-3.26a4.61,4.61,0,0,1-6.52,0l-6.5-6.5,22.7-22.71H106Z"/></g></g></svg>